<svg width="379" height="187" viewBox="0 0 379 187" fill="none" xmlns="http://www.w3.org/2000/svg">
<path fill-rule="evenodd" clip-rule="evenodd" d="M0 93.5V187H189.5H379V93.5V0H189.5H0V93.5ZM95 26.955V33.909L91.25 34.538C76.455 37.017 65.386 45.091 59.959 57.361C49.299 81.459 64.405 109.955 90.026 114.082C100.332 115.741 111.35 112.195 119.907 104.465C123.696 101.042 123.852 101 132.928 101H142.113L140.307 104.202C137.07 109.938 126.604 119.428 119.842 122.757C97.941 133.539 74.065 129.954 57.509 113.397C46.799 102.687 41 88.849 41 74C41 58.965 46.182 46.564 56.885 35.985C66.633 26.35 79.617 20.342 91.25 20.083L95 20V26.955ZM126.522 30.479C129.974 32.942 134.921 37.779 137.516 41.229L142.234 47.5L133.031 47.789L123.828 48.077L120.051 44.665C117.974 42.788 115.461 40.798 114.468 40.242C112.782 39.299 112.889 38.791 116.081 32.619C117.961 28.983 119.668 26.006 119.873 26.004C120.078 26.002 123.07 28.015 126.522 30.479ZM272 74.5V120L268.75 119.985C264.152 119.963 262.925 118.861 262.299 114.19L261.749 110.093L257.125 113.863C250.867 118.964 247.748 120.125 240.293 120.125C224.612 120.125 216.107 107.567 217.215 86.049C217.781 75.061 220.547 68.492 227.083 62.615C235.64 54.922 247.939 53.753 256.54 59.815L261 62.959V45.979V29H266.5H272V74.5ZM193.656 59.185C199.655 62.181 205.468 68.883 207.578 75.234C209.527 81.102 209.794 93.461 208.106 99.657C207.483 101.944 205.516 105.982 203.736 108.631C198.107 117.008 191.309 120.156 178.932 120.117C161.905 120.063 151.216 108.945 150.197 90.229C149.502 77.454 153.769 67.204 162.222 61.346C170.54 55.582 184.517 54.621 193.656 59.185ZM317.386 57.416C327.6 60.49 333.917 69.11 334.779 81.15L335.269 88L321.884 88.08C314.523 88.124 304.563 88.122 299.75 88.076L291 87.991V91.346C291 99.353 295.884 107.176 302.788 110.231C308.643 112.821 315.883 112.271 323.226 108.678C326.236 107.205 329.165 106 329.735 106C330.7 106 334 110.246 334 111.487C334 112.631 324.385 118.089 320.548 119.122C313.712 120.962 302.823 120.41 297.058 117.93C280.303 110.722 274.309 83.298 285.97 67.2C289.53 62.285 292.494 60.215 299.372 57.838C305.63 55.675 311.17 55.545 317.386 57.416ZM242.123 65.005C237.099 66.187 233.792 69.025 231 74.552C228.856 78.796 228.5 80.852 228.501 89C228.502 101.729 230.818 107.147 237.528 110.116C244.578 113.234 251.338 111.753 257.75 105.684L261 102.608V86.978C261 72.044 260.9 71.257 258.75 69.299C254.259 65.209 248.06 63.608 242.123 65.005ZM301.5 65.881C299.3 66.891 296.724 68.591 295.776 69.658C294.186 71.449 291 79.098 291 81.126C291 81.607 298.65 82 308 82H325V78.96C325 67.814 312.473 60.842 301.5 65.881ZM170.984 66.852C163.982 70.573 160.173 80.742 161.385 92.479C162.655 104.778 169.447 112 179.744 112C191.602 112 198.006 103.797 197.994 88.624C197.985 76.878 194.89 70.063 187.931 66.464C183.938 64.399 175.224 64.599 170.984 66.852ZM136.656 142.5C136.827 143.05 136.544 144.171 136.025 144.992C135.275 146.18 134.83 146.23 133.842 145.242C133.159 144.559 131.574 144 130.319 144C125.753 144 126.396 152.086 131.059 153.305C132.874 153.78 133.097 153.523 132.598 151.534C132.2 149.947 132.514 149.017 133.589 148.604C136.563 147.463 137.12 148.008 136.81 151.75C136.524 155.209 136.237 155.525 133.112 155.824C127.851 156.326 125.362 155.289 124.013 152.032C122.607 148.637 123.239 144.904 125.623 142.52C127.414 140.729 136.098 140.713 136.656 142.5ZM154 142C154 142.55 153.55 143 153 143C152.45 143 152 143.9 152 145C152 146.492 152.667 147 154.625 147C157.008 147 157.195 146.724 156.65 144C156.075 141.127 156.197 141 159.525 141C162.873 141 164.077 142.216 162 143.5C161.45 143.84 161 146.09 161 148.5C161 150.91 161.45 153.16 162 153.5C164.077 154.784 162.873 156 159.525 156C156.197 156 156.075 155.873 156.65 153C157.195 150.276 157.008 150 154.625 150C152.667 150 152 150.508 152 152C152 153.1 152.45 154 153 154C153.55 154 154 154.45 154 155C154 155.55 152.458 156 150.572 156H147.145L147.71 150.519C148.063 147.099 147.851 144.526 147.147 143.677C146.526 142.928 146.313 142.02 146.675 141.658C147.727 140.606 154 140.899 154 142ZM179 141.941C179 142.459 178.55 143.16 178 143.5C177.45 143.84 177 146.09 177 148.5C177 150.91 177.45 153.16 178 153.5C180.083 154.787 178.87 156 175.5 156C171.883 156 171.189 155.211 173.113 153.287C174.257 152.143 173.924 145.867 172.555 142.75C171.902 141.265 172.332 141 175.393 141C177.377 141 179 141.423 179 141.941ZM196.5 145.117C199.199 148.779 199.534 148.965 199.835 146.978C200.019 145.763 199.681 144.281 199.085 143.685C197.287 141.887 197.847 141 200.783 141H203.565L203.163 148.25C202.941 152.238 202.251 155.839 201.63 156.254C200.956 156.705 199.492 155.725 198 153.826C196.625 152.075 194.686 149.711 193.691 148.571C191.892 146.512 191.884 146.517 192.299 149.5C192.529 151.15 193.054 153.288 193.466 154.25C194.086 155.702 193.684 156 191.107 156C188.071 156 187.004 154.734 189 153.5C189.55 153.16 190 150.91 190 148.5C190 146.09 189.55 143.84 189 143.5C187.087 142.317 188.018 141 190.75 141.024C192.794 141.041 194.27 142.092 196.5 145.117ZM220 141.514C220 141.796 219.486 142.849 218.859 143.854C218.163 144.969 217.99 147.133 218.416 149.403C218.997 152.499 219.482 153.072 221.307 152.812C223.066 152.562 223.563 151.732 223.818 148.618C223.993 146.483 223.656 144.256 223.068 143.668C221.192 141.792 221.907 141 225.475 141C228.704 141 228.919 141.194 228.517 143.75C228.279 145.262 227.821 148.182 227.499 150.238C226.823 154.555 224.43 156.267 219.711 155.81C215.966 155.447 214.488 152.956 213.739 145.75L213.246 141H216.623C218.48 141 220 141.231 220 141.514ZM244.666 142.427C244.365 143.212 244.767 144.392 245.559 145.049C247.032 146.271 247.488 145.429 247.075 142.25C246.976 141.488 248.101 141 249.956 141C253.308 141 253.83 142.066 251.445 144.045C248.117 146.808 247.886 148.711 250.504 151.822C251.877 153.454 253 155.061 253 155.394C253 155.727 251.456 156 249.57 156C246.773 156 246.08 155.584 245.82 153.75C245.644 152.512 245.05 151.5 244.5 151.5C243.95 151.5 243.356 152.512 243.18 153.75C242.949 155.379 242.19 156 240.43 156C237.472 156 237.277 153.964 240 151.5C242.479 149.256 242.479 148.17 240 145C237.278 141.52 237.486 141 241.607 141C244.32 141 245.078 141.354 244.666 142.427ZM117 149C117 149.647 105.167 150 83.5 150C61.833 150 50 149.647 50 149C50 148.353 61.833 148 83.5 148C105.167 148 117 148.353 117 149ZM326 149C326 149.647 314.167 150 292.5 150C270.833 150 259 149.647 259 149C259 148.353 270.833 148 292.5 148C314.167 148 326 148.353 326 149Z" fill="white"/>
</svg>
