<svg width="219" height="136" viewBox="0 0 219 136" fill="none" xmlns="http://www.w3.org/2000/svg">
<path fill-rule="evenodd" clip-rule="evenodd" d="M70 0H90H110V20H90V40H110V60H90H70V40V20V0ZM110 60V80H130H150V60V40V20H130H110V40H130V60H110Z" fill="white"/>
<path d="M17.6408 111.18C17.4541 111.407 17.2741 111.587 17.1008 111.72C16.9274 111.853 16.6808 111.92 16.3608 111.92C16.0541 111.92 15.7741 111.847 15.5208 111.7C15.2808 111.553 15.0074 111.393 14.7008 111.22C14.3941 111.033 14.0341 110.867 13.6208 110.72C13.2074 110.573 12.6941 110.5 12.0808 110.5C11.3208 110.5 10.6608 110.64 10.1008 110.92C9.55412 111.2 9.10078 111.6 8.74078 112.12C8.38078 112.64 8.11411 113.28 7.94078 114.04C7.76745 114.787 7.68078 115.633 7.68078 116.58C7.68078 118.567 8.06078 120.093 8.82078 121.16C9.59412 122.227 10.6541 122.76 12.0008 122.76C12.7208 122.76 13.2874 122.673 13.7008 122.5C14.1274 122.313 14.4874 122.113 14.7808 121.9C15.0741 121.673 15.3408 121.467 15.5808 121.28C15.8341 121.093 16.1474 121 16.5208 121C17.0141 121 17.3874 121.18 17.6408 121.54L19.4408 123.76C18.8008 124.493 18.1274 125.093 17.4208 125.56C16.7141 126.013 15.9874 126.373 15.2408 126.64C14.5074 126.893 13.7674 127.067 13.0208 127.16C12.2741 127.267 11.5474 127.32 10.8408 127.32C9.57411 127.32 8.36078 127.08 7.20078 126.6C6.05411 126.12 5.04078 125.427 4.16078 124.52C3.29411 123.6 2.60078 122.473 2.08078 121.14C1.57411 119.807 1.32078 118.287 1.32078 116.58C1.32078 115.087 1.54078 113.693 1.98078 112.4C2.43411 111.093 3.09411 109.967 3.96078 109.02C4.84078 108.06 5.92078 107.307 7.20078 106.76C8.49412 106.213 9.98745 105.94 11.6808 105.94C13.3074 105.94 14.7341 106.2 15.9608 106.72C17.1874 107.24 18.2941 108 19.2808 109L17.6408 111.18ZM31.0623 105.94C32.6357 105.94 34.069 106.187 35.3623 106.68C36.6557 107.173 37.7623 107.88 38.6823 108.8C39.6157 109.72 40.3357 110.84 40.8423 112.16C41.3623 113.467 41.6223 114.94 41.6223 116.58C41.6223 118.233 41.3623 119.727 40.8423 121.06C40.3357 122.38 39.6157 123.507 38.6823 124.44C37.7623 125.36 36.6557 126.073 35.3623 126.58C34.069 127.073 32.6357 127.32 31.0623 127.32C29.4757 127.32 28.029 127.073 26.7223 126.58C25.429 126.073 24.309 125.36 23.3623 124.44C22.429 123.507 21.7023 122.38 21.1823 121.06C20.6757 119.727 20.4223 118.233 20.4223 116.58C20.4223 114.94 20.6757 113.467 21.1823 112.16C21.7023 110.84 22.429 109.72 23.3623 108.8C24.309 107.88 25.429 107.173 26.7223 106.68C28.029 106.187 29.4757 105.94 31.0623 105.94ZM31.0623 122.72C32.489 122.72 33.5357 122.22 34.2023 121.22C34.8823 120.207 35.2223 118.673 35.2223 116.62C35.2223 114.567 34.8823 113.04 34.2023 112.04C33.5357 111.04 32.489 110.54 31.0623 110.54C29.5957 110.54 28.5223 111.04 27.8423 112.04C27.1623 113.04 26.8223 114.567 26.8223 116.62C26.8223 118.673 27.1623 120.207 27.8423 121.22C28.5223 122.22 29.5957 122.72 31.0623 122.72ZM57.3245 111.82C56.8579 111.3 56.3512 110.94 55.8045 110.74C55.2579 110.527 54.6845 110.42 54.0845 110.42C53.5112 110.42 52.9845 110.533 52.5045 110.76C52.0245 110.987 51.6045 111.353 51.2445 111.86C50.8979 112.353 50.6245 113 50.4245 113.8C50.2245 114.6 50.1245 115.567 50.1245 116.7C50.1245 117.793 50.2045 118.713 50.3645 119.46C50.5245 120.207 50.7445 120.813 51.0245 121.28C51.3179 121.733 51.6645 122.06 52.0645 122.26C52.4645 122.46 52.9112 122.56 53.4045 122.56C53.8579 122.56 54.2645 122.52 54.6245 122.44C54.9979 122.347 55.3379 122.22 55.6445 122.06C55.9512 121.9 56.2379 121.7 56.5045 121.46C56.7845 121.207 57.0579 120.92 57.3245 120.6V111.82ZM63.5245 97.06V127H59.6845C58.9112 127 58.4045 126.653 58.1645 125.96L57.6845 124.38C57.2712 124.82 56.8379 125.22 56.3845 125.58C55.9312 125.94 55.4379 126.253 54.9045 126.52C54.3845 126.773 53.8179 126.967 53.2045 127.1C52.6045 127.247 51.9512 127.32 51.2445 127.32C50.1645 127.32 49.1645 127.08 48.2445 126.6C47.3245 126.12 46.5312 125.427 45.8645 124.52C45.1979 123.613 44.6712 122.507 44.2845 121.2C43.9112 119.88 43.7245 118.38 43.7245 116.7C43.7245 115.153 43.9379 113.72 44.3645 112.4C44.7912 111.067 45.3912 109.92 46.1645 108.96C46.9512 107.987 47.8912 107.227 48.9845 106.68C50.0779 106.133 51.2845 105.86 52.6045 105.86C53.6845 105.86 54.5912 106.013 55.3245 106.32C56.0579 106.627 56.7245 107.04 57.3245 107.56V97.06H63.5245ZM80.6133 114.14C80.6133 113.647 80.5466 113.167 80.4133 112.7C80.2933 112.233 80.0866 111.82 79.7933 111.46C79.5133 111.087 79.1399 110.787 78.6733 110.56C78.2066 110.333 77.6399 110.22 76.9733 110.22C75.7999 110.22 74.8799 110.56 74.2133 111.24C73.5466 111.907 73.1066 112.873 72.8933 114.14H80.6133ZM72.8133 117.74C73.0133 119.473 73.5399 120.733 74.3933 121.52C75.2466 122.293 76.3466 122.68 77.6933 122.68C78.4133 122.68 79.0333 122.593 79.5533 122.42C80.0733 122.247 80.5333 122.053 80.9333 121.84C81.3466 121.627 81.7199 121.433 82.0533 121.26C82.3999 121.087 82.7599 121 83.1333 121C83.6266 121 83.9999 121.18 84.2533 121.54L86.0533 123.76C85.4133 124.493 84.7199 125.093 83.9733 125.56C83.2399 126.013 82.4799 126.373 81.6933 126.64C80.9199 126.893 80.1399 127.067 79.3533 127.16C78.5799 127.267 77.8399 127.32 77.1333 127.32C75.6799 127.32 74.3133 127.087 73.0333 126.62C71.7666 126.14 70.6533 125.433 69.6933 124.5C68.7466 123.567 67.9933 122.407 67.4333 121.02C66.8866 119.633 66.6133 118.02 66.6133 116.18C66.6133 114.793 66.8466 113.48 67.3133 112.24C67.7933 111 68.4733 109.913 69.3533 108.98C70.2466 108.047 71.3199 107.307 72.5733 106.76C73.8399 106.213 75.2666 105.94 76.8533 105.94C78.2266 105.94 79.4799 106.153 80.6133 106.58C81.7599 107.007 82.7399 107.627 83.5533 108.44C84.3799 109.253 85.0199 110.253 85.4733 111.44C85.9399 112.613 86.1733 113.947 86.1733 115.44C86.1733 115.907 86.1533 116.287 86.1133 116.58C86.0733 116.873 85.9999 117.107 85.8933 117.28C85.7866 117.453 85.6399 117.573 85.4533 117.64C85.2799 117.707 85.0533 117.74 84.7733 117.74H72.8133ZM106.434 115.54C107.46 115.54 108.2 115.287 108.654 114.78C109.12 114.26 109.354 113.593 109.354 112.78C109.354 111.94 109.12 111.28 108.654 110.8C108.2 110.32 107.46 110.08 106.434 110.08C105.407 110.08 104.66 110.32 104.194 110.8C103.74 111.28 103.514 111.94 103.514 112.78C103.514 113.18 103.567 113.547 103.674 113.88C103.794 114.213 103.974 114.507 104.214 114.76C104.454 115 104.754 115.193 105.114 115.34C105.487 115.473 105.927 115.54 106.434 115.54ZM111.234 127.76C111.234 127.267 111.014 126.913 110.574 126.7C110.134 126.473 109.56 126.313 108.854 126.22C108.147 126.127 107.354 126.073 106.474 126.06C105.607 126.033 104.74 125.98 103.874 125.9C103.487 126.167 103.167 126.467 102.914 126.8C102.674 127.12 102.554 127.487 102.554 127.9C102.554 128.193 102.614 128.46 102.734 128.7C102.867 128.94 103.094 129.147 103.414 129.32C103.734 129.493 104.16 129.627 104.694 129.72C105.24 129.827 105.927 129.88 106.754 129.88C107.647 129.88 108.38 129.827 108.954 129.72C109.527 129.613 109.98 129.467 110.314 129.28C110.66 129.093 110.9 128.867 111.034 128.6C111.167 128.347 111.234 128.067 111.234 127.76ZM117.354 106.9V109.16C117.354 109.507 117.254 109.78 117.054 109.98C116.867 110.18 116.54 110.333 116.074 110.44L114.574 110.78C114.654 111.073 114.714 111.373 114.754 111.68C114.807 111.987 114.834 112.307 114.834 112.64C114.834 113.68 114.614 114.613 114.174 115.44C113.747 116.267 113.154 116.973 112.394 117.56C111.647 118.133 110.76 118.58 109.734 118.9C108.707 119.207 107.607 119.36 106.434 119.36C106.114 119.36 105.8 119.353 105.494 119.34C105.187 119.313 104.887 119.273 104.594 119.22C104.14 119.5 103.914 119.813 103.914 120.16C103.914 120.507 104.1 120.76 104.474 120.92C104.847 121.067 105.34 121.173 105.954 121.24C106.567 121.293 107.26 121.333 108.034 121.36C108.82 121.373 109.62 121.42 110.434 121.5C111.247 121.567 112.04 121.687 112.814 121.86C113.6 122.033 114.3 122.313 114.914 122.7C115.527 123.087 116.02 123.607 116.394 124.26C116.767 124.9 116.954 125.72 116.954 126.72C116.954 127.653 116.727 128.567 116.274 129.46C115.82 130.353 115.154 131.147 114.274 131.84C113.394 132.533 112.314 133.087 111.034 133.5C109.754 133.927 108.287 134.14 106.634 134.14C105.007 134.14 103.6 133.987 102.414 133.68C101.24 133.373 100.26 132.967 99.4736 132.46C98.7003 131.967 98.1269 131.393 97.7536 130.74C97.3803 130.087 97.1936 129.407 97.1936 128.7C97.1936 127.78 97.4603 127.013 97.9936 126.4C98.5269 125.787 99.2736 125.293 100.234 124.92C99.7269 124.613 99.3269 124.22 99.0336 123.74C98.7403 123.26 98.5936 122.64 98.5936 121.88C98.5936 121.573 98.6469 121.253 98.7536 120.92C98.8603 120.573 99.0269 120.24 99.2536 119.92C99.4936 119.587 99.7869 119.273 100.134 118.98C100.48 118.687 100.894 118.427 101.374 118.2C100.294 117.627 99.4403 116.873 98.8136 115.94C98.1869 114.993 97.8736 113.893 97.8736 112.64C97.8736 111.6 98.0936 110.667 98.5336 109.84C98.9736 109 99.5736 108.293 100.334 107.72C101.107 107.133 102.014 106.687 103.054 106.38C104.094 106.06 105.22 105.9 106.434 105.9C108.194 105.9 109.754 106.233 111.114 106.9H117.354ZM126.14 108.08C126.887 107.44 127.693 106.927 128.56 106.54C129.44 106.14 130.487 105.94 131.7 105.94C132.833 105.94 133.833 106.14 134.7 106.54C135.58 106.927 136.32 107.473 136.92 108.18C137.52 108.873 137.973 109.707 138.28 110.68C138.587 111.64 138.74 112.687 138.74 113.82V127H132.54V113.82C132.54 112.807 132.307 112.02 131.84 111.46C131.373 110.887 130.687 110.6 129.78 110.6C129.1 110.6 128.46 110.747 127.86 111.04C127.273 111.32 126.7 111.707 126.14 112.2V127H119.94V97.06H126.14V108.08ZM149.092 106.26V127H142.892V106.26H149.092ZM149.732 100.58C149.732 101.073 149.632 101.54 149.432 101.98C149.232 102.407 148.959 102.787 148.612 103.12C148.266 103.44 147.859 103.7 147.392 103.9C146.939 104.087 146.452 104.18 145.932 104.18C145.426 104.18 144.952 104.087 144.512 103.9C144.072 103.7 143.679 103.44 143.332 103.12C142.999 102.787 142.732 102.407 142.532 101.98C142.346 101.54 142.252 101.073 142.252 100.58C142.252 100.073 142.346 99.6 142.532 99.16C142.732 98.72 142.999 98.3333 143.332 98C143.679 97.6667 144.072 97.4067 144.512 97.22C144.952 97.0333 145.426 96.94 145.932 96.94C146.452 96.94 146.939 97.0333 147.392 97.22C147.859 97.4067 148.266 97.6667 148.612 98C148.959 98.3333 149.232 98.72 149.432 99.16C149.632 99.6 149.732 100.073 149.732 100.58ZM159.136 108.5C159.536 108.127 159.95 107.78 160.376 107.46C160.803 107.14 161.256 106.873 161.736 106.66C162.23 106.433 162.756 106.26 163.316 106.14C163.89 106.007 164.51 105.94 165.176 105.94C166.31 105.94 167.31 106.14 168.176 106.54C169.056 106.927 169.796 107.473 170.396 108.18C170.996 108.873 171.45 109.707 171.756 110.68C172.063 111.64 172.216 112.687 172.216 113.82V127H166.016V113.82C166.016 112.807 165.783 112.02 165.316 111.46C164.85 110.887 164.163 110.6 163.256 110.6C162.576 110.6 161.936 110.747 161.336 111.04C160.75 111.32 160.176 111.707 159.616 112.2V127H153.416V106.26H157.256C158.03 106.26 158.536 106.607 158.776 107.3L159.136 108.5ZM194.829 106.26V127H190.989C190.216 127 189.709 126.653 189.469 125.96L189.109 124.76C188.709 125.147 188.296 125.5 187.869 125.82C187.442 126.127 186.982 126.393 186.489 126.62C186.009 126.833 185.482 127 184.909 127.12C184.349 127.253 183.736 127.32 183.069 127.32C181.936 127.32 180.929 127.127 180.049 126.74C179.182 126.34 178.449 125.787 177.849 125.08C177.249 124.373 176.796 123.54 176.489 122.58C176.182 121.62 176.029 120.567 176.029 119.42V106.26H182.229V119.42C182.229 120.447 182.462 121.24 182.929 121.8C183.396 122.36 184.082 122.64 184.989 122.64C185.669 122.64 186.302 122.5 186.889 122.22C187.489 121.927 188.069 121.533 188.629 121.04V106.26H194.829ZM218.881 127H212.921C212.481 127 212.121 126.893 211.841 126.68C211.575 126.467 211.361 126.213 211.201 125.92L207.501 119.56C207.435 119.787 207.355 120 207.261 120.2C207.168 120.4 207.068 120.587 206.961 120.76L203.921 125.92C203.735 126.187 203.515 126.433 203.261 126.66C203.008 126.887 202.681 127 202.281 127H196.761L203.721 116.28L197.041 106.26H203.001C203.441 106.26 203.761 106.32 203.961 106.44C204.175 106.547 204.361 106.733 204.521 107L208.221 113.14C208.301 112.9 208.401 112.667 208.521 112.44C208.641 112.2 208.775 111.96 208.921 111.72L211.561 107.1C211.748 106.807 211.941 106.593 212.141 106.46C212.355 106.327 212.615 106.26 212.921 106.26H218.601L211.921 116L218.881 127Z" fill="white"/>
</svg>
