<svg width="156" height="157" viewBox="0 0 156 157" fill="none" xmlns="http://www.w3.org/2000/svg">
<mask id="path-1-inside-1_0_1" fill="white">
<path fill-rule="evenodd" clip-rule="evenodd" d="M0 0.75H38.75H77.5V39.5H38.75V78.25H77.5V117H38.75H0V78.25V39.5V0.75Z"/>
</mask>
<path d="M0 0.75V-0.25H-1V0.75H0ZM77.5 0.75H78.5V-0.25H77.5V0.75ZM77.5 39.5V40.5H78.5V39.5H77.5ZM38.75 39.5V38.5H37.75V39.5H38.75ZM38.75 78.25H37.75V79.25H38.75V78.25ZM77.5 78.25H78.5V77.25H77.5V78.25ZM77.5 117V118H78.5V117H77.5ZM0 117H-1V118H0V117ZM38.75 -0.25H0V1.75H38.75V-0.25ZM77.5 -0.25H38.75V1.75H77.5V-0.25ZM78.5 39.5V0.75H76.5V39.5H78.5ZM38.75 40.5H77.5V38.5H38.75V40.5ZM39.75 78.25V39.5H37.75V78.25H39.75ZM38.75 79.25H77.5V77.25H38.75V79.25ZM76.5 78.25V117H78.5V78.25H76.5ZM77.5 116H38.75V118H77.5V116ZM0 118H38.75V116H0V118ZM-1 78.25V117H1V78.25H-1ZM-1 39.5V78.25H1V39.5H-1ZM-1 0.75V39.5H1V0.75H-1Z" fill="#C778DD" mask="url(#path-1-inside-1_0_1)"/>
<mask id="path-3-outside-2_0_1" maskUnits="userSpaceOnUse" x="76.5" y="38.5" width="80" height="119" fill="black">
<rect fill="white" x="76.5" y="38.5" width="80" height="119"/>
<path fill-rule="evenodd" clip-rule="evenodd" d="M77.5 39.5H116.25H155V78.25V117V155.75H116.25H77.5V117H116.25V78.25H77.5V39.5Z"/>
</mask>
<path d="M77.5 39.5V38.5H76.5V39.5H77.5ZM155 39.5H156V38.5H155V39.5ZM155 155.75V156.75H156V155.75H155ZM77.5 155.75H76.5V156.75H77.5V155.75ZM77.5 117V116H76.5V117H77.5ZM116.25 117V118H117.25V117H116.25ZM116.25 78.25H117.25V77.25H116.25V78.25ZM77.5 78.25H76.5V79.25H77.5V78.25ZM116.25 38.5H77.5V40.5H116.25V38.5ZM155 38.5H116.25V40.5H155V38.5ZM156 78.25V39.5H154V78.25H156ZM156 117V78.25H154V117H156ZM156 155.75V117H154V155.75H156ZM116.25 156.75H155V154.75H116.25V156.75ZM116.25 154.75H77.5V156.75H116.25V154.75ZM78.5 155.75V117H76.5V155.75H78.5ZM77.5 118H116.25V116H77.5V118ZM115.25 78.25V117H117.25V78.25H115.25ZM77.5 79.25H116.25V77.25H77.5V79.25ZM76.5 39.5V78.25H78.5V39.5H76.5Z" fill="#C778DD" mask="url(#path-3-outside-2_0_1)"/>
</svg>
