<svg width="349" height="310" viewBox="0 0 349 310" fill="none" xmlns="http://www.w3.org/2000/svg">
<circle cx="2" cy="40" r="2" fill="#ABB2BF"/>
<circle cx="16.75" cy="40" r="2" fill="#ABB2BF"/>
<circle cx="31.5" cy="40" r="2" fill="#ABB2BF"/>
<circle cx="46.25" cy="40" r="2" fill="#ABB2BF"/>
<circle cx="61" cy="40" r="2" fill="#ABB2BF"/>
<circle cx="2" cy="54.75" r="2" fill="#ABB2BF"/>
<circle cx="16.75" cy="54.75" r="2" fill="#ABB2BF"/>
<circle cx="31.5" cy="54.75" r="2" fill="#ABB2BF"/>
<circle cx="46.25" cy="54.75" r="2" fill="#ABB2BF"/>
<circle cx="61" cy="54.75" r="2" fill="#ABB2BF"/>
<circle cx="2" cy="69.5" r="2" fill="#ABB2BF"/>
<circle cx="16.75" cy="69.5" r="2" fill="#ABB2BF"/>
<circle cx="31.5" cy="69.5" r="2" fill="#ABB2BF"/>
<circle cx="46.25" cy="69.5" r="2" fill="#ABB2BF"/>
<circle cx="61" cy="69.5" r="2" fill="#ABB2BF"/>
<circle cx="2" cy="84.25" r="2" fill="#ABB2BF"/>
<circle cx="16.75" cy="84.25" r="2" fill="#ABB2BF"/>
<circle cx="31.5" cy="84.25" r="2" fill="#ABB2BF"/>
<circle cx="46.25" cy="84.25" r="2" fill="#ABB2BF"/>
<circle cx="61" cy="84.25" r="2" fill="#ABB2BF"/>
<circle cx="2" cy="99" r="2" fill="#ABB2BF"/>
<circle cx="16.75" cy="99" r="2" fill="#ABB2BF"/>
<circle cx="31.5" cy="99" r="2" fill="#ABB2BF"/>
<circle cx="46.25" cy="99" r="2" fill="#ABB2BF"/>
<circle cx="61" cy="99" r="2" fill="#ABB2BF"/>
<circle cx="179" cy="145" r="2" fill="#ABB2BF"/>
<circle cx="193.75" cy="145" r="2" fill="#ABB2BF"/>
<circle cx="208.5" cy="145" r="2" fill="#ABB2BF"/>
<circle cx="223.25" cy="145" r="2" fill="#ABB2BF"/>
<circle cx="238" cy="145" r="2" fill="#ABB2BF"/>
<circle cx="179" cy="159.75" r="2" fill="#ABB2BF"/>
<circle cx="193.75" cy="159.75" r="2" fill="#ABB2BF"/>
<circle cx="208.5" cy="159.75" r="2" fill="#ABB2BF"/>
<circle cx="223.25" cy="159.75" r="2" fill="#ABB2BF"/>
<circle cx="238" cy="159.75" r="2" fill="#ABB2BF"/>
<circle cx="179" cy="174.5" r="2" fill="#ABB2BF"/>
<circle cx="193.75" cy="174.5" r="2" fill="#ABB2BF"/>
<circle cx="208.5" cy="174.5" r="2" fill="#ABB2BF"/>
<circle cx="223.25" cy="174.5" r="2" fill="#ABB2BF"/>
<circle cx="238" cy="174.5" r="2" fill="#ABB2BF"/>
<circle cx="179" cy="189.25" r="2" fill="#ABB2BF"/>
<circle cx="193.75" cy="189.25" r="2" fill="#ABB2BF"/>
<circle cx="208.5" cy="189.25" r="2" fill="#ABB2BF"/>
<circle cx="223.25" cy="189.25" r="2" fill="#ABB2BF"/>
<circle cx="238" cy="189.25" r="2" fill="#ABB2BF"/>
<circle cx="179" cy="204" r="2" fill="#ABB2BF"/>
<circle cx="193.75" cy="204" r="2" fill="#ABB2BF"/>
<circle cx="208.5" cy="204" r="2" fill="#ABB2BF"/>
<circle cx="223.25" cy="204" r="2" fill="#ABB2BF"/>
<circle cx="238" cy="204" r="2" fill="#ABB2BF"/>
<rect x="297.5" y="193.5" width="51" height="51" stroke="#ABB2BF"/>
<rect x="227.5" y="0.5" width="85" height="85" stroke="#ABB2BF"/>
<mask id="path-53-inside-1_29_371" fill="white">
<path fill-rule="evenodd" clip-rule="evenodd" d="M71.5 225H99.75H128V253.25V281.5V309.75H99.75H71.5V281.5H99.75V253.25H71.5V225Z"/>
</mask>
<path d="M71.5 225V224H70.5V225H71.5ZM128 225H129V224H128V225ZM128 309.75V310.75H129V309.75H128ZM71.5 309.75H70.5V310.75H71.5V309.75ZM71.5 281.5V280.5H70.5V281.5H71.5ZM99.75 281.5V282.5H100.75V281.5H99.75ZM99.75 253.25H100.75V252.25H99.75V253.25ZM71.5 253.25H70.5V254.25H71.5V253.25ZM99.75 224H71.5V226H99.75V224ZM128 224H99.75V226H128V224ZM129 253.25V225H127V253.25H129ZM129 281.5V253.25H127V281.5H129ZM129 309.75V281.5H127V309.75H129ZM99.75 310.75H128V308.75H99.75V310.75ZM99.75 308.75H71.5V310.75H99.75V308.75ZM72.5 309.75V281.5H70.5V309.75H72.5ZM71.5 282.5H99.75V280.5H71.5V282.5ZM98.75 253.25V281.5H100.75V253.25H98.75ZM71.5 254.25H99.75V252.25H71.5V254.25ZM70.5 225V253.25H72.5V225H70.5Z" fill="#C778DD" mask="url(#path-53-inside-1_29_371)"/>
<mask id="path-55-outside-2_29_371" maskUnits="userSpaceOnUse" x="14" y="196.25" width="59" height="87" fill="black">
<rect fill="white" x="14" y="196.25" width="59" height="87"/>
<path fill-rule="evenodd" clip-rule="evenodd" d="M15 197.25H43.25H71.5V225.5H43.25V253.75H71.5V282H43.25H15V253.75V225.5V197.25Z"/>
</mask>
<path d="M15 197.25V196.25H14V197.25H15ZM71.5 197.25H72.5V196.25H71.5V197.25ZM71.5 225.5V226.5H72.5V225.5H71.5ZM43.25 225.5V224.5H42.25V225.5H43.25ZM43.25 253.75H42.25V254.75H43.25V253.75ZM71.5 253.75H72.5V252.75H71.5V253.75ZM71.5 282V283H72.5V282H71.5ZM15 282H14V283H15V282ZM43.25 196.25H15V198.25H43.25V196.25ZM71.5 196.25H43.25V198.25H71.5V196.25ZM72.5 225.5V197.25H70.5V225.5H72.5ZM43.25 226.5H71.5V224.5H43.25V226.5ZM44.25 253.75V225.5H42.25V253.75H44.25ZM43.25 254.75H71.5V252.75H43.25V254.75ZM70.5 253.75V282H72.5V253.75H70.5ZM71.5 281H43.25V283H71.5V281ZM15 283H43.25V281H15V283ZM14 253.75V282H16V253.75H14ZM14 225.5V253.75H16V225.5H14ZM14 197.25V225.5H16V197.25H14Z" fill="#C778DD" mask="url(#path-55-outside-2_29_371)"/>
</svg>
